<?xml version="1.0" encoding="UTF-8" standalone="no"?>
<svg
   xmlns:dc="http://purl.org/dc/elements/1.1/"
   xmlns:cc="http://creativecommons.org/ns#"
   xmlns:rdf="http://www.w3.org/1999/02/22-rdf-syntax-ns#"
   xmlns:svg="http://www.w3.org/2000/svg"
   xmlns="http://www.w3.org/2000/svg"
   xmlns:sodipodi="http://sodipodi.sourceforge.net/DTD/sodipodi-0.dtd"
   xmlns:inkscape="http://www.inkscape.org/namespaces/inkscape"
   width="1200"
   height="1200"
   viewBox="0 0 317.49999 317.50001"
   version="1.1"
   id="svg8"
   inkscape:version="1.0.2 (e86c870879, 2021-01-15, custom)"
   sodipodi:docname="test.svg"
   inkscape:export-filename="C:\Users\Shane\Desktop\test.png"
   inkscape:export-xdpi="15.36"
   inkscape:export-ydpi="15.36">
  <defs
     id="defs2" />
  <sodipodi:namedview
     id="base"
     pagecolor="#ffffff"
     bordercolor="#666666"
     borderopacity="1.0"
     inkscape:pageopacity="0.0"
     inkscape:pageshadow="2"
     inkscape:zoom="0.49497475"
     inkscape:cx="223.4743"
     inkscape:cy="680.01749"
     inkscape:document-units="px"
     inkscape:current-layer="layer1"
     inkscape:document-rotation="0"
     showgrid="false"
     units="px"
     inkscape:window-width="1920"
     inkscape:window-height="1001"
     inkscape:window-x="-9"
     inkscape:window-y="-9"
     inkscape:window-maximized="1" />
  <metadata
     id="metadata5">
    <rdf:RDF>
      <cc:Work
         rdf:about="">
        <dc:format>image/svg+xml</dc:format>
        <dc:type
           rdf:resource="http://purl.org/dc/dcmitype/StillImage" />
        <dc:title />
      </cc:Work>
    </rdf:RDF>
  </metadata>
  <g
     inkscape:label="Layer 1"
     inkscape:groupmode="layer"
     id="layer1">
    <path
       style="fill:#6c5d53;fill-opacity:1;stroke:none;stroke-width:7.64782"
       d="M 82.17429,5.4452779 V 159.05726 A 153.45833,153.91106 0 0 1 158.90346,26.06545 153.45833,153.91106 0 0 0 82.17429,5.4452779 Z"
       id="path838-0-0" />
    <path
       style="fill:#ffd42a;stroke:none;stroke-width:7.64782"
       d="M 235.32571,5.4452779 V 159.05726 A 153.45833,153.91106 0 0 0 158.59654,26.06545 153.45833,153.91106 0 0 1 235.32571,5.4452779 Z"
       id="path838-0-0-5" />
    <path
       id="path913"
       style="fill:#554400;stroke:none;stroke-width:7.64037"
       d="m 235.11548,5.2916667 a 153.45833,153.61247 0 0 0 -0.47656,0.00209 153.45833,153.91157 0 0 1 0.47656,-0.00209 z m -0.47656,0.00209 a 153.45833,153.61247 0 0 0 -0.43408,0.00302 153.45833,153.91157 0 0 1 0.43408,-0.00302 z m -1.66596,0.017998 a 153.45833,153.61247 0 0 0 -0.44009,0.00801 153.45833,153.91157 0 0 1 0.44009,-0.00801 z m -0.44009,0.00801 a 153.45833,153.61247 0 0 0 -0.46556,0.00952 153.45833,153.91157 0 0 1 0.46556,-0.00952 z m -0.58746,0.012506 a 153.45833,153.61247 0 0 0 -0.46558,0.011495 153.45833,153.91157 0 0 1 0.46558,-0.011495 z m -0.46558,0.011495 a 153.45833,153.61247 0 0 0 -0.4336,0.011995 153.45833,153.91157 0 0 1 0.4336,-0.011995 z m -1.07799,0.032001 a 153.45833,153.61247 0 0 0 -0.37965,0.013005 153.45833,153.91157 0 0 1 0.37965,-0.013005 z m -0.58097,0.019995 a 153.45833,153.61247 0 0 0 -0.44609,0.017499 153.45833,153.91157 0 0 1 0.44609,-0.017499 z m -0.44609,0.017499 a 153.45833,153.61247 0 0 0 -0.38465,0.015502 153.45833,153.91157 0 0 1 0.38465,-0.015502 z m -0.62042,0.025998 a 153.45833,153.61247 0 0 0 -0.43161,0.019496 153.45833,153.91157 0 0 1 0.43161,-0.019496 z m -0.43161,0.019496 a 153.45833,153.61247 0 0 0 -0.52601,0.025499 153.45833,153.91157 0 0 1 0.52601,-0.025499 z m -0.52601,0.025499 A 153.45833,153.61247 0 0 0 82.020833,158.90363 H 235.47916 A 153.45833,153.91157 0 0 0 158.74999,25.911338 153.45833,153.91157 0 0 1 227.79676,5.4841826 Z" />
    <path
       id="path838-1"
       style="fill:#24221c;stroke:none;stroke-width:7.64037"
       d="M 82.020833,158.5964 V 312.20835 A 153.45833,153.61196 0 0 0 235.47915,158.5964 Z" />
  </g>
</svg>
